<?xml version="1.0" encoding="iso-8859-1"?>
<!-- Uploaded to: SVG Repo, www.svgrepo.com, Generator: SVG Repo Mixer Tools -->
<svg height="800px" width="800px" version="1.1" id="Layer_1" xmlns="http://www.w3.org/2000/svg" xmlns:xlink="http://www.w3.org/1999/xlink" 
	 viewBox="0 0 512 512" xml:space="preserve">
<path style="fill:#463246;" d="M397.241,248.311H273.655v88.276c0,17.655,0,44.138,26.483,70.621
	c14.581,14.581,29.163,35.183,28.825,56.835c-0.111,7.126,6.016,12.676,13.009,11.297c41.216-8.131,150.722-39.934,143.545-147.581
	C481.945,274.181,397.241,248.311,397.241,248.311z"/>
<circle style="fill:#51627D;" cx="361.931" cy="354.24" r="61.793"/>
<path style="fill:#463246;" d="M450.207,36.449c52.966,0,61.793,44.138,61.793,44.138s-17.655,8.828-17.655,35.31
	c0,22.746,6.513,78.058-8.433,115.585c-4.038,10.137-13.795,16.828-24.707,16.828H264.828l0,0
	C264.828,248.311,317.793,36.449,450.207,36.449z"/>
<g>
	<circle style="fill:#64B4DC;" cx="463.448" cy="67.343" r="13.241"/>
	<path style="fill:#64B4DC;" d="M362.178,248.311c1.736-26.141-2.877-48.814-6.143-61.025c-1.647-6.159,0.203-12.729,4.712-17.238
		l16.726-16.726c6.522-6.522,16.937-7.093,24.018-1.18c16.117,13.46,41.534,39.951,42.682,73.879
		c0.413,12.177-9.417,22.291-21.6,22.291h-16.504h-43.891V248.311z"/>
</g>
<path style="fill:#564046;" d="M409.379,248.311c0,0,72.566,25.87,76.138,79.448c1.579,23.689-2.56,43.647-10.311,60.546
	c-20.124-45.613-68.43-97.961-147.955-139.994L409.379,248.311L409.379,248.311z"/>
<path style="fill:#64B4DC;" d="M362.178,248.311h43.891c0,0,36.392,98.499-8.828,132.414c-35.31,26.483-84.548-15.351-52.966-70.621
	C356.055,289.489,360.874,267.94,362.178,248.311z"/>
<path style="fill:#78C8E6;" d="M419.634,313.322c-16.681-15.827-36.596-31.401-59.864-46.132c1.197-6.418,2.002-12.748,2.409-18.879
	h43.891l1.248,3.617C410.362,261.08,418.088,286.533,419.634,313.322z"/>
<path style="fill:#463246;" d="M114.759,248.311h123.586v88.276c0,17.655,0,44.138-26.483,70.621
	c-14.581,14.581-29.163,35.183-28.825,56.835c0.111,7.126-6.016,12.676-13.009,11.297c-41.216-8.131-150.722-39.935-143.545-147.581
	C30.055,274.181,114.759,248.311,114.759,248.311z"/>
<circle style="fill:#51627D;" cx="150.069" cy="354.24" r="61.793"/>
<path style="fill:#463246;" d="M61.793,36.449C8.828,36.449,0,80.587,0,80.587s17.655,8.828,17.655,35.31
	c0,22.746-6.513,78.058,8.433,115.585c4.038,10.137,13.795,16.828,24.707,16.828h196.377l0,0
	C247.172,248.311,194.207,36.449,61.793,36.449z"/>
<circle style="fill:#64B4DC;" cx="48.552" cy="67.343" r="13.241"/>
<path style="fill:#C7C1C7;" d="M256,226.242c-2.182,0-4.034-1.587-4.362-3.742c-0.12-0.759-11.905-76.077-34.707-113.121
	c-1.276-2.069-0.629-4.793,1.449-6.069c2.044-1.276,4.785-0.647,6.069,1.449c15.715,25.535,26.155,66.897,31.552,92.853
	c5.397-25.956,15.837-67.319,31.552-92.853c1.284-2.094,4.025-2.724,6.069-1.449c2.078,1.276,2.724,4,1.449,6.069
	c-22.802,37.043-34.586,112.362-34.707,113.121C260.034,224.655,258.182,226.242,256,226.242z"/>
<path style="fill:#463246;" d="M256,301.276L256,301.276c-7.313,0-13.241-5.929-13.241-13.241v-66.207
	c0-7.313,5.929-13.241,13.241-13.241l0,0c7.313,0,13.241,5.929,13.241,13.241v66.207C269.241,295.348,263.313,301.276,256,301.276z"
	/>
<path style="fill:#564046;" d="M256,354.242L256,354.242c-9.751,0-17.655-7.904-17.655-17.655v-88.276
	c0-9.751,7.904-17.655,17.655-17.655l0,0c9.751,0,17.655,7.904,17.655,17.655v88.276C273.655,346.337,265.75,354.242,256,354.242z"
	/>
<path style="fill:#64B4DC;" d="M149.822,248.311c-1.736-26.141,2.877-48.814,6.143-61.025c1.647-6.159-0.203-12.729-4.712-17.238
	l-16.726-16.726c-6.522-6.522-16.937-7.093-24.018-1.18c-16.117,13.46-41.534,39.951-42.682,73.879
	c-0.413,12.177,9.417,22.291,21.6,22.291h16.504h43.891V248.311z"/>
<path style="fill:#564046;" d="M102.621,248.311c0,0-72.566,25.87-76.138,79.448c-1.579,23.689,2.56,43.647,10.311,60.546
	c20.124-45.613,68.43-97.961,147.955-139.994L102.621,248.311L102.621,248.311z"/>
<path style="fill:#64B4DC;" d="M149.822,248.311h-43.891c0,0-36.392,98.499,8.828,132.414c35.31,26.483,84.548-15.351,52.966-70.621
	C155.945,289.489,151.125,267.94,149.822,248.311z"/>
<path style="fill:#78C8E6;" d="M92.366,313.322c16.681-15.827,36.596-31.401,59.864-46.132c-1.197-6.418-2.002-12.748-2.409-18.879
	h-43.891c0,0-1.103,3.275-1.248,3.617C101.638,261.08,93.912,286.533,92.366,313.322z"/>
</svg>